G04*
G04 #@! TF.GenerationSoftware,Altium Limited,Altium Designer,20.0.7 (75)*
G04*
G04 Layer_Physical_Order=2*
G04 Layer_Color=16711680*
%FSLAX25Y25*%
%MOIN*%
G70*
G01*
G75*
%ADD10C,0.00787*%
%ADD97C,0.03150*%
%ADD98C,0.00591*%
%ADD99C,0.05543*%
%ADD100R,0.05543X0.05543*%
%ADD101O,0.08661X0.17323*%
%ADD102O,0.15748X0.07874*%
%ADD103O,0.07874X0.15748*%
%ADD104C,0.05000*%
%ADD105C,0.03347*%
%ADD106C,0.03937*%
%ADD107C,0.02756*%
G36*
X364520Y1622D02*
X1622D01*
X1622Y283811D01*
X364520D01*
X364520Y1622D01*
D02*
G37*
%LPC*%
G36*
X27559Y263452D02*
X26752Y263346D01*
X26000Y263034D01*
X25355Y262539D01*
X24859Y261893D01*
X24548Y261141D01*
X24442Y260335D01*
X24548Y259528D01*
X24859Y258776D01*
X25355Y258131D01*
X26000Y257635D01*
X26752Y257324D01*
X27559Y257218D01*
X28366Y257324D01*
X29118Y257635D01*
X29763Y258131D01*
X30259Y258776D01*
X30472Y259292D01*
X147416D01*
X147659Y258847D01*
X147593Y258701D01*
X147399Y258448D01*
X147088Y257697D01*
X146981Y256890D01*
X147088Y256083D01*
X147399Y255331D01*
X147894Y254685D01*
X148540Y254190D01*
X149292Y253879D01*
X150099Y253772D01*
X150905Y253879D01*
X151657Y254190D01*
X152303Y254685D01*
X152798Y255331D01*
X153110Y256083D01*
X153216Y256890D01*
X153110Y257697D01*
X152798Y258448D01*
X152303Y259094D01*
X151657Y259589D01*
X150905Y259901D01*
X150099Y260007D01*
X149755Y259962D01*
X149669Y260091D01*
X149669Y260091D01*
X149669Y260091D01*
X149207Y260552D01*
X148755Y261005D01*
X148429Y261222D01*
X148045Y261299D01*
X30505D01*
X30259Y261893D01*
X29763Y262539D01*
X29118Y263034D01*
X28366Y263346D01*
X27559Y263452D01*
D02*
G37*
G36*
X89075Y249255D02*
X36426D01*
X35581Y249087D01*
X34896Y248629D01*
X34449Y248688D01*
X33642Y248582D01*
X32890Y248271D01*
X32245Y247775D01*
X31749Y247130D01*
X31438Y246378D01*
X31332Y245571D01*
X31438Y244764D01*
X31749Y244012D01*
X32245Y243367D01*
X32544Y243137D01*
X32374Y242637D01*
X23622D01*
X23238Y242561D01*
X22912Y242343D01*
X7839Y227270D01*
X7621Y226944D01*
X7545Y226560D01*
Y21836D01*
X7621Y21452D01*
X7839Y21126D01*
X20634Y8331D01*
X20960Y8113D01*
X21344Y8037D01*
X37442D01*
X37826Y8113D01*
X38152Y8331D01*
X44199Y14378D01*
X44417Y14704D01*
X44493Y15088D01*
Y34296D01*
X44417Y34680D01*
X44199Y35006D01*
X31222Y47982D01*
X31509Y48675D01*
X31625Y49552D01*
X31509Y50430D01*
X31170Y51248D01*
X30631Y51950D01*
X29929Y52489D01*
X29111Y52828D01*
X28233Y52944D01*
X27356Y52828D01*
X26538Y52489D01*
X25835Y51950D01*
X25297Y51248D01*
X24958Y50430D01*
X24842Y49552D01*
X24958Y48675D01*
X25297Y47857D01*
X25835Y47154D01*
X26538Y46615D01*
X27356Y46277D01*
X28233Y46161D01*
X29111Y46277D01*
X29803Y46563D01*
X42486Y33881D01*
Y15504D01*
X37026Y10044D01*
X21759D01*
X9552Y22252D01*
Y226145D01*
X24038Y240630D01*
X51696D01*
X51926Y240075D01*
X52422Y239430D01*
X53067Y238934D01*
X53819Y238623D01*
X54626Y238517D01*
X55433Y238623D01*
X56185Y238934D01*
X56830Y239430D01*
X57326Y240075D01*
X57637Y240827D01*
X57743Y241634D01*
X57637Y242441D01*
X57326Y243193D01*
X56830Y243838D01*
X56185Y244334D01*
X56170Y244339D01*
X56270Y244840D01*
X88160D01*
X94403Y238596D01*
X95120Y238118D01*
X95964Y237950D01*
X168377D01*
X183324Y223003D01*
Y221196D01*
X182832Y220555D01*
X182520Y219803D01*
X182414Y218996D01*
X182520Y218189D01*
X182832Y217437D01*
X183327Y216792D01*
X183973Y216297D01*
X184725Y215985D01*
X185531Y215879D01*
X185969Y215936D01*
X186705Y215201D01*
X187422Y214722D01*
X188266Y214554D01*
X256132D01*
X256977Y214722D01*
X257693Y215201D01*
X271584Y229092D01*
X341113D01*
X350722Y219482D01*
X350828Y218681D01*
X351139Y217930D01*
X351631Y217288D01*
Y154458D01*
X328734Y131561D01*
X327933Y131456D01*
X327182Y131144D01*
X326536Y130649D01*
X326041Y130003D01*
X325729Y129252D01*
X325623Y128445D01*
X325729Y127638D01*
X326041Y126886D01*
X326536Y126241D01*
X327182Y125745D01*
X327933Y125434D01*
X328740Y125328D01*
X329547Y125434D01*
X330299Y125745D01*
X330944Y126241D01*
X331440Y126886D01*
X331751Y127638D01*
X331857Y128439D01*
X355400Y151982D01*
X355878Y152698D01*
X356046Y153543D01*
Y217288D01*
X356538Y217930D01*
X356850Y218681D01*
X356956Y219488D01*
X356850Y220295D01*
X356538Y221047D01*
X356043Y221692D01*
X355397Y222188D01*
X354645Y222499D01*
X353844Y222605D01*
X343589Y232860D01*
X342872Y233339D01*
X342027Y233507D01*
X270669D01*
X269824Y233339D01*
X269108Y232860D01*
X255217Y218970D01*
X189181D01*
X188572Y219579D01*
X188542Y219803D01*
X188231Y220555D01*
X187739Y221196D01*
Y223917D01*
X187571Y224762D01*
X187093Y225478D01*
X170852Y241719D01*
X170136Y242197D01*
X169291Y242365D01*
X96879D01*
X90636Y248608D01*
X89920Y249087D01*
X89075Y249255D01*
D02*
G37*
G36*
X150099Y249672D02*
X149292Y249566D01*
X148540Y249255D01*
X147894Y248759D01*
X147399Y248114D01*
X147088Y247362D01*
X146981Y246555D01*
X147088Y245748D01*
X147399Y244997D01*
X147894Y244351D01*
X148540Y243856D01*
X149292Y243544D01*
X150099Y243438D01*
X150905Y243544D01*
X151657Y243856D01*
X152303Y244351D01*
X152798Y244997D01*
X152926Y245306D01*
X160368D01*
X160375Y245256D01*
X160686Y244504D01*
X161182Y243859D01*
X161827Y243363D01*
X162579Y243052D01*
X163386Y242946D01*
X164193Y243052D01*
X164945Y243363D01*
X165590Y243859D01*
X166086Y244504D01*
X166397Y245256D01*
X166503Y246063D01*
X166397Y246870D01*
X166086Y247621D01*
X165590Y248267D01*
X164945Y248762D01*
X164193Y249074D01*
X163386Y249180D01*
X162579Y249074D01*
X161827Y248762D01*
X161182Y248267D01*
X160686Y247621D01*
X160558Y247313D01*
X153116D01*
X153110Y247362D01*
X152798Y248114D01*
X152303Y248759D01*
X151657Y249255D01*
X150905Y249566D01*
X150099Y249672D01*
D02*
G37*
G36*
X62008Y239830D02*
X61201Y239724D01*
X60449Y239412D01*
X59804Y238917D01*
X59308Y238271D01*
X58997Y237519D01*
X58958Y237224D01*
X41339D01*
X40955Y237148D01*
X40629Y236930D01*
X27032Y223333D01*
X26814Y223007D01*
X26738Y222623D01*
Y192697D01*
X26046Y192411D01*
X25343Y191872D01*
X24805Y191169D01*
X24466Y190351D01*
X24350Y189474D01*
X24466Y188596D01*
X24805Y187778D01*
X25343Y187076D01*
X26046Y186537D01*
X26864Y186198D01*
X27741Y186082D01*
X28619Y186198D01*
X29437Y186537D01*
X30139Y187076D01*
X30678Y187778D01*
X31017Y188596D01*
X31133Y189474D01*
X31017Y190351D01*
X30678Y191169D01*
X30139Y191872D01*
X29437Y192411D01*
X28745Y192697D01*
Y222208D01*
X41754Y235217D01*
X54006D01*
X54105Y234717D01*
X53559Y234491D01*
X52914Y233996D01*
X52419Y233350D01*
X52107Y232598D01*
X52001Y231791D01*
X52107Y230984D01*
X52337Y230430D01*
X48503Y226595D01*
X48285Y226270D01*
X48209Y225886D01*
Y171367D01*
X47709Y171197D01*
X47480Y171496D01*
X46834Y171991D01*
X46082Y172302D01*
X45276Y172409D01*
X44469Y172302D01*
X43717Y171991D01*
X43076Y171499D01*
X30425D01*
X30139Y171872D01*
X29437Y172411D01*
X28619Y172749D01*
X27741Y172865D01*
X26864Y172749D01*
X26046Y172411D01*
X25343Y171872D01*
X25058Y171499D01*
X23622D01*
X22777Y171331D01*
X22061Y170852D01*
X11908Y160700D01*
X11430Y159984D01*
X11262Y159139D01*
Y135025D01*
X11430Y134180D01*
X11908Y133464D01*
X21420Y123952D01*
X11417Y113948D01*
X10938Y113232D01*
X10770Y112387D01*
Y85812D01*
X10938Y84967D01*
X11417Y84251D01*
X19698Y75970D01*
X11908Y68181D01*
X11430Y67464D01*
X11262Y66619D01*
Y37584D01*
X11430Y36739D01*
X11908Y36023D01*
X19940Y27991D01*
X20656Y27513D01*
X21501Y27345D01*
X25690D01*
X25835Y27154D01*
X26538Y26616D01*
X27356Y26277D01*
X28233Y26161D01*
X29111Y26277D01*
X29929Y26616D01*
X30631Y27154D01*
X31170Y27857D01*
X31509Y28675D01*
X31625Y29552D01*
X31509Y30430D01*
X31170Y31248D01*
X30631Y31950D01*
X29929Y32489D01*
X29111Y32828D01*
X28233Y32943D01*
X27356Y32828D01*
X26538Y32489D01*
X25835Y31950D01*
X25690Y31760D01*
X22416D01*
X15677Y38498D01*
Y65705D01*
X24069Y74097D01*
X25690D01*
X25835Y73906D01*
X26538Y73368D01*
X27356Y73029D01*
X28233Y72913D01*
X29111Y73029D01*
X29929Y73368D01*
X30631Y73906D01*
X31170Y74609D01*
X31509Y75427D01*
X31625Y76304D01*
X31509Y77182D01*
X31170Y78000D01*
X30631Y78702D01*
X29929Y79241D01*
X29111Y79580D01*
X28233Y79696D01*
X27356Y79580D01*
X26538Y79241D01*
X25835Y78702D01*
X25690Y78512D01*
X23400D01*
X15185Y86727D01*
Y111473D01*
X24227Y120514D01*
X25198D01*
X25343Y120324D01*
X26046Y119785D01*
X26864Y119446D01*
X27741Y119331D01*
X28619Y119446D01*
X29437Y119785D01*
X30139Y120324D01*
X30678Y121026D01*
X31017Y121844D01*
X31133Y122722D01*
X31017Y123600D01*
X30678Y124417D01*
X30139Y125120D01*
X29437Y125659D01*
X28619Y125997D01*
X27741Y126113D01*
X26864Y125997D01*
X26046Y125659D01*
X25996Y125621D01*
X15677Y135939D01*
Y158224D01*
X24536Y167084D01*
X25337D01*
X25343Y167076D01*
X26046Y166537D01*
X26864Y166198D01*
X27741Y166083D01*
X28619Y166198D01*
X29437Y166537D01*
X30139Y167076D01*
X30145Y167084D01*
X43076D01*
X43717Y166592D01*
X44469Y166280D01*
X45276Y166174D01*
X46082Y166280D01*
X46834Y166592D01*
X47480Y167087D01*
X47709Y167386D01*
X48209Y167216D01*
Y164609D01*
X29311Y145711D01*
X28619Y145997D01*
X27741Y146113D01*
X26864Y145997D01*
X26046Y145659D01*
X25343Y145120D01*
X24805Y144417D01*
X24466Y143599D01*
X24350Y142722D01*
X24466Y141844D01*
X24805Y141026D01*
X25343Y140324D01*
X26046Y139785D01*
X26864Y139446D01*
X27741Y139330D01*
X28619Y139446D01*
X29437Y139785D01*
X30139Y140324D01*
X30678Y141026D01*
X31017Y141844D01*
X31133Y142722D01*
X31017Y143599D01*
X30730Y144291D01*
X49922Y163483D01*
X50140Y163809D01*
X50216Y164193D01*
Y218889D01*
X50716Y219059D01*
X50945Y218760D01*
X51591Y218265D01*
X52146Y218035D01*
Y128861D01*
X22406Y99120D01*
X22188Y98795D01*
X22112Y98411D01*
Y90930D01*
X22188Y90546D01*
X22406Y90221D01*
X25100Y87526D01*
X24958Y87182D01*
X24842Y86304D01*
X24958Y85427D01*
X25297Y84609D01*
X25835Y83906D01*
X26538Y83368D01*
X27356Y83029D01*
X28233Y82913D01*
X29111Y83029D01*
X29929Y83368D01*
X30631Y83906D01*
X31170Y84609D01*
X31509Y85427D01*
X31625Y86304D01*
X31509Y87182D01*
X31170Y88000D01*
X30631Y88702D01*
X29929Y89241D01*
X29111Y89580D01*
X28233Y89696D01*
X27356Y89580D01*
X26538Y89241D01*
X26360Y89105D01*
X24119Y91346D01*
Y97995D01*
X53859Y127735D01*
X54077Y128061D01*
X54153Y128445D01*
Y218035D01*
X54708Y218265D01*
X55354Y218760D01*
X55849Y219406D01*
X56161Y220158D01*
X56267Y220965D01*
X56161Y221771D01*
X55849Y222523D01*
X55354Y223169D01*
X54708Y223664D01*
X53956Y223976D01*
X53150Y224082D01*
X52343Y223976D01*
X51591Y223664D01*
X50945Y223169D01*
X50716Y222870D01*
X50216Y223040D01*
Y225470D01*
X53756Y229010D01*
X54311Y228780D01*
X55118Y228674D01*
X55925Y228780D01*
X56677Y229092D01*
X57322Y229587D01*
X57818Y230233D01*
X58129Y230984D01*
X58235Y231791D01*
X58129Y232598D01*
X57818Y233350D01*
X57322Y233996D01*
X56677Y234491D01*
X56131Y234717D01*
X56231Y235217D01*
X59282D01*
X59308Y235154D01*
X59804Y234508D01*
X60449Y234013D01*
X61201Y233702D01*
X62008Y233595D01*
X62815Y233702D01*
X63566Y234013D01*
X64212Y234508D01*
X64707Y235154D01*
X65019Y235906D01*
X65125Y236713D01*
X65019Y237519D01*
X64707Y238271D01*
X64212Y238917D01*
X63566Y239412D01*
X62815Y239724D01*
X62008Y239830D01*
D02*
G37*
G36*
X61024Y229987D02*
X60217Y229881D01*
X59465Y229570D01*
X58819Y229074D01*
X58324Y228429D01*
X58013Y227677D01*
X57906Y226870D01*
X58013Y226063D01*
X58242Y225508D01*
X57361Y224627D01*
X57144Y224301D01*
X57067Y223917D01*
Y119510D01*
X35200Y97642D01*
X31318D01*
X31170Y98000D01*
X30631Y98702D01*
X29929Y99241D01*
X29111Y99580D01*
X28233Y99696D01*
X27356Y99580D01*
X26538Y99241D01*
X25835Y98702D01*
X25297Y98000D01*
X24958Y97182D01*
X24842Y96304D01*
X24958Y95427D01*
X25297Y94609D01*
X25835Y93906D01*
X26538Y93367D01*
X27356Y93029D01*
X28233Y92913D01*
X29111Y93029D01*
X29929Y93367D01*
X30631Y93906D01*
X31170Y94609D01*
X31509Y95427D01*
X31537Y95635D01*
X35615D01*
X36000Y95712D01*
X36325Y95929D01*
X58780Y118385D01*
X58998Y118710D01*
X59074Y119094D01*
Y223502D01*
X59662Y224089D01*
X60217Y223859D01*
X61024Y223753D01*
X61830Y223859D01*
X62582Y224170D01*
X63228Y224666D01*
X63723Y225311D01*
X64035Y226063D01*
X64141Y226870D01*
X64035Y227677D01*
X63723Y228429D01*
X63228Y229074D01*
X62582Y229570D01*
X61830Y229881D01*
X61024Y229987D01*
D02*
G37*
G36*
X150098D02*
X149292Y229881D01*
X148540Y229570D01*
X147894Y229074D01*
X147399Y228429D01*
X147087Y227677D01*
X146981Y226870D01*
X147087Y226063D01*
X147399Y225311D01*
X147894Y224666D01*
X148540Y224170D01*
X149292Y223859D01*
X150098Y223753D01*
X150905Y223859D01*
X151657Y224170D01*
X152303Y224666D01*
X152798Y225311D01*
X153028Y225867D01*
X160017D01*
X174189Y211695D01*
X173859Y211318D01*
X173803Y211361D01*
X173051Y211672D01*
X172244Y211779D01*
X171437Y211672D01*
X170686Y211361D01*
X170040Y210866D01*
X169544Y210220D01*
X169233Y209468D01*
X169128Y208667D01*
X143278Y182818D01*
X110728D01*
X109883Y182650D01*
X109167Y182171D01*
X80132Y153136D01*
X79653Y152420D01*
X79485Y151575D01*
Y132621D01*
X77987D01*
X77346Y133113D01*
X76594Y133424D01*
X75787Y133531D01*
X74981Y133424D01*
X74229Y133113D01*
X73583Y132618D01*
X73088Y131972D01*
X72776Y131220D01*
X72670Y130413D01*
X72776Y129607D01*
X73088Y128855D01*
X73583Y128209D01*
X74229Y127714D01*
X74981Y127402D01*
X75787Y127296D01*
X76594Y127402D01*
X77346Y127714D01*
X77987Y128206D01*
X79493D01*
X80134Y127714D01*
X80886Y127402D01*
X81693Y127296D01*
X82500Y127402D01*
X83252Y127714D01*
X83893Y128206D01*
X103416D01*
X115978Y115644D01*
X116084Y114843D01*
X116395Y114091D01*
X116890Y113445D01*
X117536Y112950D01*
X118288Y112639D01*
X119095Y112532D01*
X119901Y112639D01*
X120653Y112950D01*
X121299Y113445D01*
X121794Y114091D01*
X122106Y114843D01*
X122212Y115650D01*
X122106Y116456D01*
X121794Y117208D01*
X121299Y117854D01*
X120653Y118349D01*
X119901Y118661D01*
X119100Y118766D01*
X105892Y131974D01*
X105176Y132453D01*
X104331Y132621D01*
X83901D01*
Y150660D01*
X111643Y178402D01*
X144193D01*
X145038Y178570D01*
X145754Y179049D01*
X172250Y205545D01*
X173051Y205650D01*
X173803Y205962D01*
X174448Y206457D01*
X174944Y207103D01*
X175255Y207855D01*
X175361Y208661D01*
X175255Y209468D01*
X174944Y210220D01*
X174900Y210276D01*
X175277Y210607D01*
X191712Y194172D01*
X192037Y193955D01*
X192421Y193878D01*
X279059D01*
X279289Y193323D01*
X279784Y192678D01*
X280430Y192182D01*
X281181Y191871D01*
X281988Y191765D01*
X282795Y191871D01*
X283547Y192182D01*
X284192Y192678D01*
X284688Y193323D01*
X284999Y194075D01*
X285105Y194882D01*
X284999Y195689D01*
X284688Y196440D01*
X284192Y197086D01*
X283547Y197582D01*
X282795Y197893D01*
X281988Y197999D01*
X281181Y197893D01*
X280430Y197582D01*
X279784Y197086D01*
X279289Y196440D01*
X279059Y195885D01*
X192837D01*
X161143Y227580D01*
X160817Y227797D01*
X160433Y227874D01*
X160433Y227874D01*
X153028D01*
X152798Y228429D01*
X152303Y229074D01*
X151657Y229570D01*
X150905Y229881D01*
X150098Y229987D01*
D02*
G37*
G36*
X43307Y215716D02*
X42500Y215609D01*
X41748Y215298D01*
X41103Y214803D01*
X40608Y214157D01*
X40296Y213405D01*
X40190Y212598D01*
X40296Y211792D01*
X40608Y211040D01*
X41103Y210394D01*
X41748Y209899D01*
X42304Y209669D01*
Y195455D01*
X29311Y182463D01*
X28619Y182749D01*
X27741Y182865D01*
X26864Y182749D01*
X26046Y182411D01*
X25343Y181872D01*
X24805Y181169D01*
X24466Y180351D01*
X24350Y179474D01*
X24466Y178596D01*
X24805Y177778D01*
X25343Y177076D01*
X26046Y176537D01*
X26864Y176198D01*
X27741Y176083D01*
X28619Y176198D01*
X29437Y176537D01*
X30139Y177076D01*
X30678Y177778D01*
X31017Y178596D01*
X31133Y179474D01*
X31017Y180351D01*
X30730Y181044D01*
X44017Y194330D01*
X44234Y194655D01*
X44311Y195039D01*
Y209669D01*
X44866Y209899D01*
X45511Y210394D01*
X46007Y211040D01*
X46318Y211792D01*
X46424Y212598D01*
X46318Y213405D01*
X46007Y214157D01*
X45511Y214803D01*
X44866Y215298D01*
X44114Y215609D01*
X43307Y215716D01*
D02*
G37*
G36*
X323721Y180373D02*
X320284D01*
Y175894D01*
X328634D01*
X328530Y176682D01*
X328033Y177884D01*
X327242Y178915D01*
X326210Y179706D01*
X325009Y180204D01*
X323721Y180373D01*
D02*
G37*
G36*
X319284D02*
X315846D01*
X314558Y180204D01*
X313357Y179706D01*
X312325Y178915D01*
X311534Y177884D01*
X311037Y176682D01*
X310933Y175894D01*
X319284D01*
Y180373D01*
D02*
G37*
G36*
X328634Y174894D02*
X320284D01*
Y170414D01*
X323721D01*
X325009Y170584D01*
X326210Y171081D01*
X327242Y171873D01*
X328033Y172904D01*
X328530Y174105D01*
X328634Y174894D01*
D02*
G37*
G36*
X319284D02*
X310933D01*
X311037Y174105D01*
X311534Y172904D01*
X312325Y171873D01*
X313357Y171081D01*
X314558Y170584D01*
X315846Y170414D01*
X319284D01*
Y174894D01*
D02*
G37*
G36*
X31513Y163245D02*
X28242D01*
Y159974D01*
X31513D01*
Y163245D01*
D02*
G37*
G36*
X27242D02*
X23970D01*
Y159974D01*
X27242D01*
Y163245D01*
D02*
G37*
G36*
X333669Y165347D02*
Y156996D01*
X338149D01*
Y160433D01*
X337979Y161722D01*
X337482Y162923D01*
X336690Y163954D01*
X335659Y164746D01*
X334458Y165243D01*
X333669Y165347D01*
D02*
G37*
G36*
X332669D02*
X331880Y165243D01*
X330679Y164746D01*
X329648Y163954D01*
X328857Y162923D01*
X328359Y161722D01*
X328190Y160433D01*
Y156996D01*
X332669D01*
Y165347D01*
D02*
G37*
G36*
X31513Y158974D02*
X28242D01*
Y155702D01*
X31513D01*
Y158974D01*
D02*
G37*
G36*
X27242D02*
X23970D01*
Y155702D01*
X27242D01*
Y158974D01*
D02*
G37*
G36*
X338149Y155996D02*
X333669D01*
Y147645D01*
X334458Y147749D01*
X335659Y148247D01*
X336690Y149038D01*
X337482Y150069D01*
X337979Y151270D01*
X338149Y152559D01*
Y155996D01*
D02*
G37*
G36*
X332669D02*
X328190D01*
Y152559D01*
X328359Y151270D01*
X328857Y150069D01*
X329648Y149038D01*
X330679Y148247D01*
X331880Y147749D01*
X332669Y147645D01*
Y155996D01*
D02*
G37*
G36*
X308366Y165790D02*
X307081Y165621D01*
X305884Y165126D01*
X304856Y164337D01*
X304067Y163309D01*
X303572Y162111D01*
X303402Y160827D01*
Y152165D01*
X303572Y150881D01*
X304067Y149683D01*
X304856Y148655D01*
X305884Y147867D01*
X307081Y147371D01*
X308366Y147202D01*
X309651Y147371D01*
X310848Y147867D01*
X311876Y148655D01*
X312665Y149683D01*
X313161Y150881D01*
X313330Y152165D01*
Y160827D01*
X313161Y162111D01*
X312665Y163309D01*
X311876Y164337D01*
X310848Y165126D01*
X309651Y165621D01*
X308366Y165790D01*
D02*
G37*
G36*
X216535Y153883D02*
X215652Y153707D01*
X214903Y153207D01*
X214403Y152458D01*
X214227Y151575D01*
X214403Y150692D01*
X214903Y149943D01*
X215532Y149523D01*
Y147247D01*
X214955Y146861D01*
X214455Y146112D01*
X214279Y145229D01*
X214455Y144346D01*
X214955Y143597D01*
X215704Y143096D01*
X216587Y142921D01*
X217470Y143096D01*
X218219Y143597D01*
X218720Y144346D01*
X218895Y145229D01*
X218720Y146112D01*
X218219Y146861D01*
X217539Y147316D01*
Y149523D01*
X218168Y149943D01*
X218668Y150692D01*
X218844Y151575D01*
X218668Y152458D01*
X218168Y153207D01*
X217419Y153707D01*
X216535Y153883D01*
D02*
G37*
G36*
X206201Y193078D02*
X205394Y192972D01*
X204642Y192660D01*
X203996Y192165D01*
X203501Y191519D01*
X203190Y190768D01*
X203083Y189961D01*
X203190Y189154D01*
X203501Y188402D01*
X203996Y187757D01*
X204642Y187261D01*
X205394Y186950D01*
X206201Y186844D01*
X206397Y186869D01*
X253792Y139474D01*
X253701Y139355D01*
X253390Y138603D01*
X253283Y137796D01*
X253380Y137066D01*
X253217Y136923D01*
X252928Y136810D01*
X230072Y159666D01*
X229746Y159884D01*
X229362Y159960D01*
X157896D01*
X142934Y174922D01*
X142608Y175140D01*
X142224Y175216D01*
X126453D01*
X126223Y175771D01*
X125728Y176417D01*
X125082Y176912D01*
X124330Y177224D01*
X123524Y177330D01*
X122717Y177224D01*
X121965Y176912D01*
X121319Y176417D01*
X120824Y175771D01*
X120513Y175019D01*
X120406Y174213D01*
X120513Y173406D01*
X120824Y172654D01*
X121319Y172008D01*
X121965Y171513D01*
X122717Y171202D01*
X123524Y171095D01*
X124330Y171202D01*
X125082Y171513D01*
X125728Y172008D01*
X126223Y172654D01*
X126453Y173209D01*
X141809D01*
X156771Y158247D01*
X157096Y158030D01*
X157480Y157953D01*
X228946D01*
X282844Y104055D01*
X282914Y103524D01*
X283226Y102772D01*
X283721Y102127D01*
X284367Y101631D01*
X285119Y101320D01*
X285925Y101214D01*
X286732Y101320D01*
X287484Y101631D01*
X288129Y102127D01*
X288625Y102772D01*
X288936Y103524D01*
X289042Y104331D01*
X288936Y105138D01*
X288625Y105889D01*
X288129Y106535D01*
X287484Y107030D01*
X286732Y107342D01*
X285925Y107448D01*
X285119Y107342D01*
X284367Y107030D01*
X283721Y106535D01*
X283235Y106503D01*
X255414Y134324D01*
X255527Y134613D01*
X255670Y134775D01*
X256400Y134679D01*
X257207Y134785D01*
X257959Y135097D01*
X258605Y135592D01*
X259100Y136238D01*
X259412Y136990D01*
X259518Y137796D01*
X259412Y138603D01*
X259100Y139355D01*
X258605Y140001D01*
X257959Y140496D01*
X257207Y140807D01*
X256400Y140914D01*
X255594Y140807D01*
X255384Y140720D01*
X208401Y187703D01*
X208405Y187757D01*
X208900Y188402D01*
X209212Y189154D01*
X209318Y189961D01*
X209212Y190768D01*
X208900Y191519D01*
X208405Y192165D01*
X207759Y192660D01*
X207008Y192972D01*
X206201Y193078D01*
D02*
G37*
G36*
X27741Y136113D02*
X26864Y135997D01*
X26046Y135659D01*
X25343Y135120D01*
X24805Y134417D01*
X24466Y133599D01*
X24350Y132722D01*
X24466Y131844D01*
X24805Y131026D01*
X25343Y130324D01*
X26046Y129785D01*
X26864Y129446D01*
X27741Y129331D01*
X28619Y129446D01*
X29437Y129785D01*
X30139Y130324D01*
X30678Y131026D01*
X31017Y131844D01*
X31133Y132722D01*
X31017Y133599D01*
X30678Y134417D01*
X30139Y135120D01*
X29437Y135659D01*
X28619Y135997D01*
X27741Y136113D01*
D02*
G37*
G36*
X232283Y151739D02*
X231477Y151633D01*
X230725Y151322D01*
X230079Y150826D01*
X229584Y150181D01*
X229273Y149429D01*
X229166Y148622D01*
X229242Y148049D01*
X228754Y147723D01*
X200562Y119530D01*
X169227D01*
X168586Y120022D01*
X167834Y120334D01*
X167027Y120440D01*
X166221Y120334D01*
X165469Y120022D01*
X164823Y119527D01*
X164328Y118881D01*
X164016Y118130D01*
X163910Y117323D01*
X164016Y116516D01*
X164328Y115764D01*
X164823Y115119D01*
X165469Y114623D01*
X166221Y114312D01*
X167027Y114206D01*
X167834Y114312D01*
X168586Y114623D01*
X169227Y115115D01*
X201476D01*
X202321Y115283D01*
X203037Y115762D01*
X203037Y115762D01*
X231876Y144600D01*
X232355Y145317D01*
X232395Y145520D01*
X233090Y145611D01*
X233842Y145923D01*
X234488Y146418D01*
X234983Y147064D01*
X235295Y147815D01*
X235401Y148622D01*
X235295Y149429D01*
X234983Y150181D01*
X234488Y150826D01*
X233842Y151322D01*
X233090Y151633D01*
X232283Y151739D01*
D02*
G37*
G36*
X31513Y116493D02*
X28242D01*
Y113222D01*
X31513D01*
Y116493D01*
D02*
G37*
G36*
X27242D02*
X23970D01*
Y113222D01*
X27242D01*
Y116493D01*
D02*
G37*
G36*
X266525Y136483D02*
X265718Y136377D01*
X264966Y136066D01*
X264320Y135570D01*
X263825Y134925D01*
X263514Y134173D01*
X263407Y133366D01*
X263514Y132559D01*
X263825Y131807D01*
X264320Y131162D01*
X264966Y130666D01*
X265718Y130355D01*
X266525Y130249D01*
X267332Y130355D01*
X267887Y130585D01*
X284213Y114259D01*
X284210Y114255D01*
X283898Y113504D01*
X283792Y112697D01*
X283898Y111890D01*
X284210Y111138D01*
X284705Y110493D01*
X285351Y109997D01*
X286103Y109686D01*
X286910Y109580D01*
X287716Y109686D01*
X288468Y109997D01*
X289114Y110493D01*
X289609Y111138D01*
X289920Y111890D01*
X290027Y112697D01*
X289920Y113504D01*
X289609Y114255D01*
X289114Y114901D01*
X288468Y115396D01*
X287716Y115708D01*
X286910Y115814D01*
X286103Y115708D01*
X285749Y115561D01*
X269306Y132004D01*
X269536Y132559D01*
X269642Y133366D01*
X269536Y134173D01*
X269224Y134925D01*
X268729Y135570D01*
X268083Y136066D01*
X267332Y136377D01*
X266525Y136483D01*
D02*
G37*
G36*
X31513Y112222D02*
X28242D01*
Y108950D01*
X31513D01*
Y112222D01*
D02*
G37*
G36*
X27242D02*
X23970D01*
Y108950D01*
X27242D01*
Y112222D01*
D02*
G37*
G36*
X150446Y132199D02*
X149639Y132093D01*
X148887Y131781D01*
X148242Y131286D01*
X147746Y130640D01*
X147435Y129888D01*
X147329Y129082D01*
X147435Y128275D01*
X147746Y127523D01*
X148238Y126882D01*
X148238Y120224D01*
X148406Y119379D01*
X148885Y118663D01*
X167730Y99817D01*
X168446Y99338D01*
X169291Y99170D01*
X200556D01*
X201197Y98678D01*
X201949Y98367D01*
X202756Y98261D01*
X203563Y98367D01*
X204314Y98678D01*
X204960Y99174D01*
X205455Y99819D01*
X205767Y100571D01*
X205873Y101378D01*
X205767Y102185D01*
X205455Y102936D01*
X204960Y103582D01*
X204314Y104077D01*
X203563Y104389D01*
X202756Y104495D01*
X201949Y104389D01*
X201197Y104077D01*
X200556Y103586D01*
X170206D01*
X152654Y121138D01*
X152654Y126882D01*
X153145Y127523D01*
X153457Y128275D01*
X153563Y129082D01*
X153457Y129888D01*
X153145Y130640D01*
X152650Y131286D01*
X152004Y131781D01*
X151253Y132093D01*
X150446Y132199D01*
D02*
G37*
G36*
X221949Y183235D02*
X221142Y183129D01*
X220390Y182818D01*
X219745Y182322D01*
X219249Y181677D01*
X218938Y180925D01*
X218832Y180118D01*
X218938Y179311D01*
X219249Y178560D01*
X219745Y177914D01*
X220390Y177418D01*
X221142Y177107D01*
X221949Y177001D01*
X222756Y177107D01*
X223507Y177418D01*
X224153Y177914D01*
X224648Y178560D01*
X224878Y179115D01*
X256474D01*
X276556Y159033D01*
Y131890D01*
X276632Y131506D01*
X276850Y131180D01*
X295748Y112281D01*
Y88014D01*
X278982Y71248D01*
X271684D01*
X271400Y71933D01*
X270905Y72578D01*
X270259Y73074D01*
X269508Y73385D01*
X268701Y73491D01*
X267894Y73385D01*
X267142Y73074D01*
X266496Y72578D01*
X266001Y71933D01*
X265690Y71181D01*
X265583Y70374D01*
X265690Y69567D01*
X266001Y68815D01*
X266496Y68170D01*
X267142Y67674D01*
X267894Y67363D01*
X268701Y67257D01*
X269508Y67363D01*
X270259Y67674D01*
X270905Y68170D01*
X271400Y68815D01*
X271576Y69241D01*
X279398D01*
X279782Y69317D01*
X280107Y69535D01*
X297462Y86889D01*
X297679Y87214D01*
X297755Y87598D01*
Y112697D01*
X297679Y113081D01*
X297462Y113407D01*
X278563Y132305D01*
Y159449D01*
X278486Y159833D01*
X278269Y160159D01*
X257599Y180828D01*
X257274Y181045D01*
X256890Y181122D01*
X224878D01*
X224648Y181677D01*
X224153Y182322D01*
X223507Y182818D01*
X222756Y183129D01*
X221949Y183235D01*
D02*
G37*
G36*
X130413Y169456D02*
X129607Y169350D01*
X128855Y169038D01*
X128209Y168543D01*
X127714Y167897D01*
X127402Y167145D01*
X127296Y166339D01*
X127402Y165532D01*
X127714Y164780D01*
X128209Y164134D01*
X128855Y163639D01*
X129410Y163409D01*
Y134350D01*
X129486Y133966D01*
X129704Y133641D01*
X200570Y62775D01*
X200896Y62557D01*
X201279Y62481D01*
X280571D01*
X280955Y62557D01*
X281280Y62775D01*
X285951Y67446D01*
X286693Y67298D01*
X287576Y67474D01*
X288325Y67974D01*
X288825Y68723D01*
X289001Y69606D01*
X288825Y70490D01*
X288325Y71238D01*
X287576Y71739D01*
X286693Y71914D01*
X285810Y71739D01*
X285061Y71238D01*
X284560Y70490D01*
X284385Y69606D01*
X284532Y68865D01*
X280155Y64488D01*
X201695D01*
X131417Y134766D01*
Y163409D01*
X131972Y163639D01*
X132618Y164134D01*
X133113Y164780D01*
X133424Y165532D01*
X133531Y166339D01*
X133424Y167145D01*
X133113Y167897D01*
X132618Y168543D01*
X131972Y169038D01*
X131220Y169350D01*
X130413Y169456D01*
D02*
G37*
G36*
X32005Y70076D02*
X28734D01*
Y66804D01*
X32005D01*
Y70076D01*
D02*
G37*
G36*
X27733D02*
X24462D01*
Y66804D01*
X27733D01*
Y70076D01*
D02*
G37*
G36*
X62992Y220145D02*
X62185Y220039D01*
X61434Y219727D01*
X60788Y219232D01*
X60293Y218586D01*
X59981Y217834D01*
X59875Y217027D01*
X59981Y216221D01*
X60293Y215469D01*
X60788Y214823D01*
X61434Y214328D01*
X61989Y214098D01*
Y150099D01*
X61989Y150098D01*
Y92936D01*
X32467Y63414D01*
X32005Y63605D01*
Y65804D01*
X28734D01*
Y62533D01*
X30933D01*
X31124Y62071D01*
X28016Y58963D01*
X28016Y58963D01*
X20142Y51089D01*
X19925Y50763D01*
X19848Y50379D01*
Y46934D01*
X19925Y46550D01*
X20142Y46224D01*
X25245Y41122D01*
X24958Y40430D01*
X24842Y39552D01*
X24958Y38675D01*
X25297Y37857D01*
X25835Y37154D01*
X26538Y36615D01*
X27356Y36277D01*
X28233Y36161D01*
X29111Y36277D01*
X29929Y36615D01*
X30631Y37154D01*
X31170Y37857D01*
X31509Y38675D01*
X31625Y39552D01*
X31509Y40430D01*
X31170Y41248D01*
X30631Y41950D01*
X29929Y42489D01*
X29111Y42828D01*
X28233Y42944D01*
X27356Y42828D01*
X26664Y42541D01*
X21855Y47350D01*
Y49964D01*
X29435Y57544D01*
X63702Y91810D01*
X63919Y92136D01*
X63996Y92520D01*
Y150099D01*
X63996Y150099D01*
Y214098D01*
X64551Y214328D01*
X65196Y214823D01*
X65692Y215469D01*
X66003Y216221D01*
X66109Y217027D01*
X66003Y217834D01*
X65692Y218586D01*
X65196Y219232D01*
X64551Y219727D01*
X63799Y220039D01*
X62992Y220145D01*
D02*
G37*
G36*
X27733Y65804D02*
X24462D01*
Y62533D01*
X27733D01*
Y65804D01*
D02*
G37*
G36*
X95403Y157222D02*
X94597Y157115D01*
X93845Y156804D01*
X93199Y156309D01*
X92704Y155663D01*
X92392Y154911D01*
X92286Y154104D01*
X92392Y153298D01*
X92704Y152546D01*
X93199Y151900D01*
X93845Y151405D01*
X94597Y151093D01*
X95403Y150987D01*
X96210Y151093D01*
X96962Y151405D01*
X97603Y151897D01*
X103347D01*
X244010Y11234D01*
X244726Y10756D01*
X245571Y10588D01*
X252722D01*
X253363Y10096D01*
X254115Y9784D01*
X254921Y9678D01*
X255728Y9784D01*
X256480Y10096D01*
X257125Y10591D01*
X257621Y11237D01*
X257932Y11988D01*
X258038Y12789D01*
X279950Y34702D01*
X285450D01*
X285518Y34617D01*
X285609Y34076D01*
X283739Y32207D01*
X283739Y32207D01*
X283739Y32207D01*
X283653Y32077D01*
X283522Y31881D01*
X283522Y31881D01*
X283522Y31881D01*
X283445Y31497D01*
Y10703D01*
X283226Y10417D01*
X282914Y9665D01*
X282808Y8858D01*
X282914Y8051D01*
X283226Y7300D01*
X283721Y6654D01*
X284367Y6159D01*
X285119Y5847D01*
X285925Y5741D01*
X286732Y5847D01*
X287484Y6159D01*
X288129Y6654D01*
X288625Y7300D01*
X288936Y8051D01*
X289042Y8858D01*
X288936Y9665D01*
X288625Y10417D01*
X288129Y11062D01*
X287484Y11558D01*
X286732Y11869D01*
X285925Y11975D01*
X285828Y11963D01*
X285452Y12292D01*
Y28672D01*
X285952Y28824D01*
X286617Y28380D01*
X287501Y28204D01*
X287876Y27788D01*
Y27683D01*
X287945Y27338D01*
X288141Y27044D01*
X292792Y22393D01*
X292793Y22393D01*
X293086Y22197D01*
X293431Y22128D01*
X293431Y22128D01*
X324800D01*
X325146Y22197D01*
X325439Y22393D01*
X333217Y30171D01*
X333413Y30465D01*
X333482Y30810D01*
Y40919D01*
X333452Y41070D01*
X333413Y41265D01*
X333413Y41265D01*
Y41265D01*
X333217Y41558D01*
X333217Y41558D01*
X333217Y41558D01*
X331814Y42961D01*
X331814Y42961D01*
X331657Y43067D01*
X331521Y43157D01*
X331521Y43157D01*
X331521Y43157D01*
X331175Y43226D01*
X331047Y43329D01*
X330814Y43613D01*
X330851Y43799D01*
X330676Y44683D01*
X330175Y45431D01*
X329427Y45932D01*
X328543Y46107D01*
X327660Y45932D01*
X326911Y45431D01*
X326411Y44683D01*
X326235Y43799D01*
X326411Y42916D01*
X326911Y42167D01*
X327188Y41982D01*
Y41482D01*
X326911Y41297D01*
X326411Y40549D01*
X326235Y39665D01*
X326411Y38782D01*
X326911Y38033D01*
X327660Y37533D01*
X328543Y37357D01*
X329427Y37533D01*
X329995Y37912D01*
X330494Y37679D01*
Y31673D01*
X323937Y25116D01*
X294294D01*
X291874Y27536D01*
X292039Y28079D01*
X292513Y28173D01*
X293261Y28673D01*
X293762Y29422D01*
X293937Y30305D01*
X293762Y31189D01*
X293311Y31863D01*
X293456Y32363D01*
X295942D01*
X296432Y31874D01*
X296202Y31319D01*
X296095Y30512D01*
X296202Y29705D01*
X296513Y28953D01*
X297008Y28308D01*
X297654Y27812D01*
X298406Y27501D01*
X299213Y27395D01*
X300020Y27501D01*
X300771Y27812D01*
X301412Y28304D01*
X303642D01*
X304487Y28472D01*
X305203Y28951D01*
X310124Y33872D01*
X310124Y33872D01*
X310603Y34588D01*
X310603Y34588D01*
X310603Y34588D01*
X310771Y35433D01*
Y54134D01*
X310603Y54979D01*
X310124Y55695D01*
X296916Y68903D01*
X296810Y69705D01*
X296499Y70456D01*
X296004Y71102D01*
X295358Y71597D01*
X294606Y71909D01*
X293799Y72015D01*
X292992Y71909D01*
X292241Y71597D01*
X291595Y71102D01*
X291100Y70456D01*
X290788Y69705D01*
X290682Y68898D01*
X290788Y68091D01*
X291100Y67339D01*
X291595Y66694D01*
X292241Y66198D01*
X292992Y65887D01*
X293794Y65781D01*
X306355Y53220D01*
Y38554D01*
X305855Y38454D01*
X305849Y38468D01*
X305354Y39114D01*
X304708Y39609D01*
X303957Y39920D01*
X303150Y40027D01*
X302343Y39920D01*
X301591Y39609D01*
X300950Y39117D01*
X279035D01*
X278191Y38949D01*
X277474Y38471D01*
X254915Y15912D01*
X254115Y15806D01*
X253363Y15495D01*
X252722Y15003D01*
X246485D01*
X105823Y155666D01*
X105106Y156144D01*
X104262Y156312D01*
X97603D01*
X96962Y156804D01*
X96210Y157115D01*
X95403Y157222D01*
D02*
G37*
G36*
X32005Y23324D02*
X28734D01*
Y20052D01*
X32005D01*
Y23324D01*
D02*
G37*
G36*
X27733D02*
X24462D01*
Y20052D01*
X27733D01*
Y23324D01*
D02*
G37*
G36*
X32005Y19052D02*
X28734D01*
Y15781D01*
X32005D01*
Y19052D01*
D02*
G37*
G36*
X27733D02*
X24462D01*
Y15781D01*
X27733D01*
Y19052D01*
D02*
G37*
%LPD*%
D10*
X61516Y236221D02*
X62008Y236713D01*
X41339Y236221D02*
X61516D01*
X23622Y241634D02*
X54626D01*
X27741Y189474D02*
Y222623D01*
X41339Y236221D01*
X53150Y128445D02*
Y220965D01*
X49213Y164193D02*
Y225886D01*
X58071Y223917D02*
X61024Y226870D01*
X49213Y225886D02*
X55118Y231791D01*
X43307Y195039D02*
Y212598D01*
X27741Y179474D02*
X43307Y195039D01*
X23115Y98411D02*
X53150Y128445D01*
X35615Y96639D02*
X58071Y119094D01*
X62992Y92520D02*
Y150099D01*
X62992Y150099D02*
X62992Y150099D01*
X28725Y58253D02*
X62992Y92520D01*
X8548Y21836D02*
Y226560D01*
X23622Y241634D01*
X277559Y131890D02*
Y159449D01*
X296752Y87598D02*
Y112697D01*
X277559Y131890D02*
X296752Y112697D01*
X8548Y21836D02*
X21344Y9041D01*
X37442D01*
X268830Y70244D02*
X279398D01*
X296752Y87598D01*
X280571Y63484D02*
X286693Y69606D01*
X130413Y134350D02*
X201279Y63484D01*
X280571D01*
X27559Y260335D02*
X27599Y260295D01*
X150098Y226870D02*
X160433D01*
X160433Y226870D01*
X192421Y194882D01*
X58071Y119094D02*
Y223917D01*
X142224Y174213D02*
X157480Y158957D01*
X123524Y174213D02*
X142224D01*
X130413Y134350D02*
Y166339D01*
X157480Y158957D02*
X229362D01*
X192421Y194882D02*
X281988D01*
X229362Y158957D02*
X283988Y104331D01*
X221949Y180118D02*
X256890D01*
X206201Y188484D02*
X256400Y138285D01*
Y137796D02*
Y138285D01*
X206201Y188484D02*
Y189961D01*
X283988Y104331D02*
X285925D01*
X27599Y260295D02*
X148045D01*
X148498Y259842D01*
X27741Y142722D02*
X49213Y164193D01*
X216535Y145281D02*
Y151575D01*
Y145281D02*
X216587Y145229D01*
X150099Y246555D02*
X150345Y246309D01*
X163140D01*
X163386Y246063D01*
X20852Y46934D02*
X28233Y39552D01*
X20852Y46934D02*
Y50379D01*
X62992Y150099D02*
Y217027D01*
X20852Y50379D02*
X28725Y58253D01*
X256890Y180118D02*
X277559Y159449D01*
X43489Y15088D02*
Y34296D01*
X28233Y49552D02*
X43489Y34296D01*
X37442Y9041D02*
X43489Y15088D01*
X150099Y256890D02*
Y258030D01*
X268701Y70374D02*
X268830Y70244D01*
X27741Y86304D02*
X28233D01*
X148498Y259842D02*
X148959Y259381D01*
X23115Y90930D02*
Y98411D01*
X266525Y133366D02*
X286910Y112981D01*
Y112697D02*
Y112981D01*
X148959Y259169D02*
Y259381D01*
X23115Y90930D02*
X27741Y86304D01*
X28568Y96639D02*
X35615D01*
X28233Y96304D02*
X28568Y96639D01*
X284449Y10335D02*
X285925Y8858D01*
X284449Y10335D02*
Y31497D01*
X286318Y33367D01*
X296358D02*
X299213Y30512D01*
X286318Y33367D02*
X296358D01*
X148959Y259169D02*
X150099Y258030D01*
D97*
X27741Y169474D02*
X27924Y169291D01*
X45276D01*
X95964Y203248D02*
X124754Y232037D01*
X284055Y45276D02*
Y49606D01*
Y40945D02*
Y45276D01*
X288386D02*
Y49606D01*
Y40945D02*
Y45276D01*
X292717D02*
Y49606D01*
Y40945D02*
Y45276D01*
X288386D02*
X292717D01*
X284055D02*
X288386D01*
Y40945D02*
X292717D01*
X284055D02*
X288386D01*
Y49606D02*
X292717D01*
X284055D02*
X288386D01*
X276083Y57579D02*
Y58071D01*
X185531Y218996D02*
X186032D01*
X188266Y216762D01*
X256132D01*
X169291Y240158D02*
X185531Y223917D01*
Y218996D02*
Y223917D01*
X158957Y233268D02*
X183563Y208661D01*
X263917D02*
X268278Y213022D01*
X183563Y208661D02*
X263917D01*
X126977Y233268D02*
X158957D01*
X34950Y245571D02*
X36426Y247047D01*
X66929Y275098D02*
Y278234D01*
X34449Y245571D02*
X34950D01*
X55610Y263779D02*
X66929Y275098D01*
X125000Y231791D02*
X125501D01*
X126977Y233268D01*
X89075Y247047D02*
X95964Y240158D01*
X36426Y247047D02*
X89075D01*
X150446Y120224D02*
X150446Y129082D01*
X110728Y180610D02*
X144193D01*
X81693Y151575D02*
X110728Y180610D01*
X81693Y130413D02*
Y151575D01*
Y130413D02*
X104331D01*
X75787D02*
X81693D01*
X104331D02*
X119095Y115650D01*
X104262Y154104D02*
X245571Y12795D01*
X254921D01*
X144193Y180610D02*
X172244Y208661D01*
X124754Y232037D02*
X125000Y231791D01*
X13470Y135025D02*
Y159139D01*
X318406Y29035D02*
Y51122D01*
X12978Y85812D02*
X22486Y76304D01*
X23312Y122722D02*
X25315D01*
X27283Y123180D02*
X27741Y122722D01*
X342027Y231299D02*
X353838Y219488D01*
X23622Y169291D02*
X27559D01*
X27741Y169474D01*
X25315Y123180D02*
X27283D01*
X13470Y159139D02*
X23622Y169291D01*
X13470Y37584D02*
Y66619D01*
X12978Y85812D02*
Y112387D01*
X23312Y122722D01*
X13470Y135025D02*
X25315Y123180D01*
X21501Y29552D02*
X28233D01*
X13470Y66619D02*
X23155Y76304D01*
X13470Y37584D02*
X21501Y29552D01*
X23155Y76304D02*
X28233D01*
X67913Y157480D02*
X96211Y185778D01*
Y203002D01*
X67913Y107283D02*
Y157480D01*
X95403Y154104D02*
X104262D01*
X169291Y101378D02*
X202756D01*
X84646Y203248D02*
X95964D01*
X256132Y216762D02*
X270669Y231299D01*
X95964Y240158D02*
X169291D01*
X270669Y231299D02*
X342027D01*
X150446Y129082D02*
X150446D01*
X150446Y120224D02*
X169291Y101378D01*
X201476Y117323D02*
X230315Y146161D01*
X167027Y117323D02*
X201476D01*
X353838Y153543D02*
Y219488D01*
X328740Y128445D02*
X353838Y153543D01*
X276083Y57579D02*
X284055Y49606D01*
X279035Y36909D02*
X303150D01*
X254921Y12795D02*
X279035Y36909D01*
X303642Y30512D02*
X308563Y35433D01*
X293799Y68898D02*
X308563Y54134D01*
X299213Y30512D02*
X303642D01*
X308563Y35433D02*
Y54134D01*
D98*
X289961Y28172D02*
X293920Y24213D01*
X287501Y29767D02*
X288779Y28488D01*
Y27683D02*
Y28488D01*
Y27683D02*
X293431Y23031D01*
X289961Y28172D02*
X291629Y29841D01*
Y30305D01*
X287501Y29767D02*
Y30512D01*
X293431Y23031D02*
X324800D01*
X331398Y31299D02*
Y40430D01*
X330686Y41142D02*
X331398Y40430D01*
X330197Y41142D02*
X330686D01*
X328720Y39665D02*
X330197Y41142D01*
X328543Y39665D02*
X328720D01*
X331175Y42323D02*
X332579Y40919D01*
X330197Y42323D02*
X331175D01*
X328720Y43799D02*
X330197Y42323D01*
X328543Y43799D02*
X328720D01*
X332579Y30810D02*
Y40919D01*
X324311Y24213D02*
X331398Y31299D01*
X324800Y23031D02*
X332579Y30810D01*
X293920Y24213D02*
X324311D01*
D99*
X28233Y49552D02*
D03*
Y39552D02*
D03*
Y29552D02*
D03*
Y76304D02*
D03*
Y86304D02*
D03*
Y96304D02*
D03*
X27741Y122722D02*
D03*
Y132722D02*
D03*
Y142722D02*
D03*
Y189474D02*
D03*
Y179474D02*
D03*
Y169474D02*
D03*
D100*
X28233Y19552D02*
D03*
Y66304D02*
D03*
X27741Y112722D02*
D03*
Y159474D02*
D03*
D101*
X308366Y156496D02*
D03*
D102*
X319783Y175394D02*
D03*
D103*
X333169Y156496D02*
D03*
D104*
X59055Y13780D02*
D03*
X263779Y183071D02*
D03*
X120079Y72835D02*
D03*
X190945Y13780D02*
D03*
X336614Y11811D02*
D03*
X54626Y241634D02*
D03*
X61024Y226870D02*
D03*
X62008Y236713D02*
D03*
X53150Y220965D02*
D03*
X45276Y169291D02*
D03*
X43307Y212598D02*
D03*
X185531Y218996D02*
D03*
X55610Y263779D02*
D03*
X34449Y245571D02*
D03*
X150098Y226870D02*
D03*
X55118Y231791D02*
D03*
X150446Y129082D02*
D03*
X123524Y174213D02*
D03*
X130413Y166339D02*
D03*
X81693Y130413D02*
D03*
X75787D02*
D03*
X119095Y115650D02*
D03*
X95403Y154104D02*
D03*
X172244Y208661D02*
D03*
X318406Y29035D02*
D03*
X221949Y180118D02*
D03*
X256400Y137796D02*
D03*
X27559Y260335D02*
D03*
X232283Y148622D02*
D03*
X353838Y219488D02*
D03*
X163386Y246063D02*
D03*
X150099Y246555D02*
D03*
X67913Y107283D02*
D03*
X318406Y51122D02*
D03*
X62992Y217027D02*
D03*
X125000Y231791D02*
D03*
X167027Y117323D02*
D03*
X202756Y101378D02*
D03*
X328740Y128445D02*
D03*
X268701Y70374D02*
D03*
X150099Y256890D02*
D03*
X285925Y104331D02*
D03*
X286910Y112697D02*
D03*
X293799Y68898D02*
D03*
X206201Y189961D02*
D03*
X266525Y133366D02*
D03*
X285925Y8858D02*
D03*
X281988Y194882D02*
D03*
X268278Y213022D02*
D03*
X303150Y36909D02*
D03*
X254921Y12795D02*
D03*
X299213Y30512D02*
D03*
D105*
X286693Y69606D02*
D03*
X291629Y30305D02*
D03*
X216535Y151575D02*
D03*
X216587Y145229D02*
D03*
X276083Y58071D02*
D03*
X287501Y30512D02*
D03*
X84646Y203248D02*
D03*
X328543Y43799D02*
D03*
Y39665D02*
D03*
D106*
X66929Y278234D02*
D03*
D107*
X284055Y40945D02*
D03*
Y45276D02*
D03*
Y49606D02*
D03*
X288386Y40945D02*
D03*
Y45276D02*
D03*
Y49606D02*
D03*
X292717Y40945D02*
D03*
Y45276D02*
D03*
Y49606D02*
D03*
M02*
