G04*
G04 #@! TF.GenerationSoftware,Altium Limited,Altium Designer,20.0.7 (75)*
G04*
G04 Layer_Color=16711935*
%FSLAX25Y25*%
%MOIN*%
G70*
G01*
G75*
%ADD88C,0.06343*%
%ADD89R,0.06343X0.06343*%
%ADD90O,0.09461X0.18123*%
%ADD91O,0.16548X0.08674*%
%ADD92O,0.08674X0.16548*%
%ADD93C,0.05800*%
%ADD94C,0.04147*%
%ADD95C,0.04737*%
%ADD96C,0.03556*%
D88*
X28233Y49552D02*
D03*
Y39552D02*
D03*
Y29552D02*
D03*
Y76304D02*
D03*
Y86304D02*
D03*
Y96304D02*
D03*
X27741Y122722D02*
D03*
Y132722D02*
D03*
Y142722D02*
D03*
Y189474D02*
D03*
Y179474D02*
D03*
Y169474D02*
D03*
D89*
X28233Y19552D02*
D03*
Y66304D02*
D03*
X27741Y112722D02*
D03*
Y159474D02*
D03*
D90*
X308366Y156496D02*
D03*
D91*
X319783Y175394D02*
D03*
D92*
X333169Y156496D02*
D03*
D93*
X59055Y13780D02*
D03*
X263779Y183071D02*
D03*
X120079Y72835D02*
D03*
X190945Y13780D02*
D03*
X336614Y11811D02*
D03*
X54626Y241634D02*
D03*
X61024Y226870D02*
D03*
X62008Y236713D02*
D03*
X53150Y220965D02*
D03*
X45276Y169291D02*
D03*
X43307Y212598D02*
D03*
X185531Y218996D02*
D03*
X55610Y263779D02*
D03*
X34449Y245571D02*
D03*
X150098Y226870D02*
D03*
X55118Y231791D02*
D03*
X150446Y129082D02*
D03*
X123524Y174213D02*
D03*
X130413Y166339D02*
D03*
X81693Y130413D02*
D03*
X75787D02*
D03*
X119095Y115650D02*
D03*
X95403Y154104D02*
D03*
X172244Y208661D02*
D03*
X318406Y29035D02*
D03*
X221949Y180118D02*
D03*
X256400Y137796D02*
D03*
X27559Y260335D02*
D03*
X232283Y148622D02*
D03*
X353838Y219488D02*
D03*
X163386Y246063D02*
D03*
X150099Y246555D02*
D03*
X67913Y107283D02*
D03*
X318406Y51122D02*
D03*
X62992Y217027D02*
D03*
X125000Y231791D02*
D03*
X167027Y117323D02*
D03*
X202756Y101378D02*
D03*
X328740Y128445D02*
D03*
X268701Y70374D02*
D03*
X150099Y256890D02*
D03*
X285925Y104331D02*
D03*
X286910Y112697D02*
D03*
X293799Y68898D02*
D03*
X206201Y189961D02*
D03*
X266525Y133366D02*
D03*
X285925Y8858D02*
D03*
X281988Y194882D02*
D03*
X268278Y213022D02*
D03*
X303150Y36909D02*
D03*
X254921Y12795D02*
D03*
X299213Y30512D02*
D03*
D94*
X286693Y69606D02*
D03*
X291629Y30305D02*
D03*
X216535Y151575D02*
D03*
X216587Y145229D02*
D03*
X276083Y58071D02*
D03*
X287501Y30512D02*
D03*
X84646Y203248D02*
D03*
X328543Y43799D02*
D03*
Y39665D02*
D03*
D95*
X66929Y278234D02*
D03*
D96*
X284055Y40945D02*
D03*
Y45276D02*
D03*
Y49606D02*
D03*
X288386Y40945D02*
D03*
Y45276D02*
D03*
Y49606D02*
D03*
X292717Y40945D02*
D03*
Y45276D02*
D03*
Y49606D02*
D03*
M02*
