M48
;Layer_Color=9474304
;FILE_FORMAT=2:4
INCH,TZ
;TYPE=PLATED
T1F00S00C0.0157
T2F00S00C0.0244
T3F00S00C0.0280
T4F00S00C0.0354
%
T01
X28750Y3051
X29163Y3031
X29272Y4094
Y4528
X28839
X28406
Y4094
X28839
Y4961
X28406
X29272
X32854Y4380
Y3967
X27608Y5807
X28669Y6961
X21659Y14523
X21654Y15157
X8465Y20325
T02
X6693Y27823
T03
X5906Y1378
X19094
X25492Y1280
X28593Y886
X29921Y3051
X30315Y3691
X31841Y2904
Y5112
X33661Y1181
X29380Y6890
X28593Y10433
X28691Y11270
X32874Y12844
X28199Y19488
X26378Y18307
X22195Y18012
X20620Y18996
X17224Y20866
X12352Y17421
X13041Y16634
X15045Y12908
X16703Y11732
X11909Y11565
X12008Y7283
X20276Y10138
X23228Y14862
X25640Y13780
X26652Y13337
X26870Y7037
X6791Y10728
X7579Y13041
X8169
X9540Y15410
X4528Y16929
X4331Y21260
X5315Y22096
X5512Y23179
X5463Y24163
X6201Y23671
X6102Y22687
X6299Y21703
X5561Y26378
X2756Y26033
X3445Y24557
X12500Y23179
X15010Y22687
X15010Y24656
Y25689
X16339Y24606
X18553Y21900
X26828Y21302
X35384Y21949
T04
X2823Y1955
Y2955
Y3955
Y4955
Y6630
Y7630
Y8630
Y9630
X2774Y11272
Y12272
Y13272
Y14272
Y15947
Y16947
Y17947
Y18947
M30
