G04*
G04 #@! TF.GenerationSoftware,Altium Limited,Altium Designer,20.0.7 (75)*
G04*
G04 Layer_Color=8421504*
%FSLAX25Y25*%
%MOIN*%
G70*
G01*
G75*
%ADD16R,0.05433X0.03819*%
%ADD17R,0.05512X0.03740*%
%ADD18R,0.07480X0.12598*%
%ADD19R,0.07480X0.03543*%
%ADD20R,0.03740X0.05512*%
%ADD21R,0.05118X0.03543*%
%ADD22R,0.04567X0.05787*%
%ADD23R,0.04370X0.05787*%
%ADD24R,0.08858X0.12520*%
%ADD25R,0.07480X0.07480*%
%ADD26R,0.07480X0.07087*%
%ADD27R,0.06299X0.08268*%
%ADD28R,0.05315X0.01575*%
%ADD29R,0.17717X0.06890*%
%ADD30R,0.02953X0.03347*%
%ADD31R,0.15748X0.15748*%
G04:AMPARAMS|DCode=32|XSize=66.93mil|YSize=35.43mil|CornerRadius=3.9mil|HoleSize=0mil|Usage=FLASHONLY|Rotation=180.000|XOffset=0mil|YOffset=0mil|HoleType=Round|Shape=RoundedRectangle|*
%AMROUNDEDRECTD32*
21,1,0.06693,0.02764,0,0,180.0*
21,1,0.05913,0.03543,0,0,180.0*
1,1,0.00780,-0.02957,0.01382*
1,1,0.00780,0.02957,0.01382*
1,1,0.00780,0.02957,-0.01382*
1,1,0.00780,-0.02957,-0.01382*
%
%ADD32ROUNDEDRECTD32*%
G04:AMPARAMS|DCode=33|XSize=66.93mil|YSize=35.43mil|CornerRadius=3.9mil|HoleSize=0mil|Usage=FLASHONLY|Rotation=90.000|XOffset=0mil|YOffset=0mil|HoleType=Round|Shape=RoundedRectangle|*
%AMROUNDEDRECTD33*
21,1,0.06693,0.02764,0,0,90.0*
21,1,0.05913,0.03543,0,0,90.0*
1,1,0.00780,0.01382,0.02957*
1,1,0.00780,0.01382,-0.02957*
1,1,0.00780,-0.01382,-0.02957*
1,1,0.00780,-0.01382,0.02957*
%
%ADD33ROUNDEDRECTD33*%
%ADD34R,0.05906X0.01929*%
%ADD35O,0.00787X0.02953*%
%ADD36O,0.02953X0.00787*%
%ADD37R,0.12323X0.12323*%
%ADD38R,0.04095X0.05433*%
%ADD39R,0.08268X0.05512*%
%ADD40R,0.05906X0.06299*%
%ADD41R,0.04331X0.05433*%
%ADD42R,0.05906X0.03150*%
%ADD43R,0.06693X0.05512*%
%ADD44R,0.05906X0.04528*%
%ADD45R,0.04528X0.05906*%
%ADD46R,0.03819X0.05433*%
%ADD47R,0.06299X0.05906*%
%ADD48R,0.03543X0.05118*%
%ADD49R,0.05787X0.04567*%
%ADD50R,0.05433X0.04331*%
%ADD51R,0.12520X0.08858*%
D16*
X41831Y256614D02*
D03*
Y249291D02*
D03*
X158957Y106083D02*
D03*
Y113406D02*
D03*
D17*
X61024Y256890D02*
D03*
Y249016D02*
D03*
X60532Y269685D02*
D03*
Y277559D02*
D03*
X51181Y249016D02*
D03*
Y256890D02*
D03*
X50197Y269685D02*
D03*
Y277559D02*
D03*
X158957Y128445D02*
D03*
Y120571D02*
D03*
X175197Y223425D02*
D03*
Y215551D02*
D03*
D18*
X120866Y135827D02*
D03*
D19*
X97638Y126772D02*
D03*
Y135827D02*
D03*
Y144882D02*
D03*
D20*
X118110Y107283D02*
D03*
X110236D02*
D03*
D21*
X87303Y126279D02*
D03*
Y118799D02*
D03*
X79134Y145571D02*
D03*
Y138091D02*
D03*
X318898Y35630D02*
D03*
Y43110D02*
D03*
D22*
X288898Y213022D02*
D03*
X281968D02*
D03*
X186535Y105315D02*
D03*
X179606D02*
D03*
X298740Y22638D02*
D03*
X291811D02*
D03*
D23*
X179527Y95473D02*
D03*
X186614D02*
D03*
D24*
X287225Y156496D02*
D03*
X260020D02*
D03*
D25*
X355315Y43898D02*
D03*
Y34449D02*
D03*
D26*
Y54134D02*
D03*
Y24213D02*
D03*
D27*
X345275Y51378D02*
D03*
Y26969D02*
D03*
D28*
X344783Y44291D02*
D03*
Y34055D02*
D03*
Y41732D02*
D03*
Y36614D02*
D03*
Y39173D02*
D03*
D29*
X218012Y114665D02*
D03*
Y101870D02*
D03*
D30*
X174213Y183563D02*
D03*
X167323D02*
D03*
X170768Y175689D02*
D03*
X190453Y184547D02*
D03*
X193898Y176673D02*
D03*
X187008D02*
D03*
D31*
X109055Y237579D02*
D03*
D32*
X141732Y266752D02*
D03*
Y261752D02*
D03*
Y256752D02*
D03*
Y251752D02*
D03*
Y246752D02*
D03*
Y241752D02*
D03*
Y236752D02*
D03*
Y231752D02*
D03*
Y226752D02*
D03*
Y221752D02*
D03*
Y216752D02*
D03*
Y211752D02*
D03*
Y206752D02*
D03*
Y201752D02*
D03*
X70866D02*
D03*
Y206752D02*
D03*
Y211752D02*
D03*
Y216752D02*
D03*
Y221752D02*
D03*
Y226752D02*
D03*
Y231752D02*
D03*
Y236752D02*
D03*
Y241752D02*
D03*
Y246752D02*
D03*
Y251752D02*
D03*
Y256752D02*
D03*
Y261752D02*
D03*
Y266752D02*
D03*
D33*
X128799Y195846D02*
D03*
X123799D02*
D03*
X118799D02*
D03*
X113799D02*
D03*
X108799D02*
D03*
X103799D02*
D03*
X98799D02*
D03*
X93799D02*
D03*
X88799D02*
D03*
X83799D02*
D03*
D34*
X175768Y122441D02*
D03*
Y119882D02*
D03*
Y117323D02*
D03*
Y114764D02*
D03*
X192342D02*
D03*
Y117323D02*
D03*
Y119882D02*
D03*
Y122441D02*
D03*
D35*
X282480Y35925D02*
D03*
X284449D02*
D03*
X286417D02*
D03*
X292323D02*
D03*
X294291D02*
D03*
Y54626D02*
D03*
X292323D02*
D03*
X290354D02*
D03*
X288386D02*
D03*
X286417D02*
D03*
X284449D02*
D03*
X282480D02*
D03*
X288386Y35925D02*
D03*
X290354D02*
D03*
D36*
X297736Y39370D02*
D03*
Y41339D02*
D03*
Y43307D02*
D03*
Y45276D02*
D03*
Y47244D02*
D03*
Y49213D02*
D03*
Y51181D02*
D03*
X279035D02*
D03*
Y49213D02*
D03*
Y47244D02*
D03*
Y45276D02*
D03*
Y43307D02*
D03*
Y41339D02*
D03*
Y39370D02*
D03*
D37*
X288386Y45276D02*
D03*
D38*
X281732Y223425D02*
D03*
X289134D02*
D03*
X177894Y201771D02*
D03*
X185295D02*
D03*
X281988Y202264D02*
D03*
X289390D02*
D03*
X263543Y62992D02*
D03*
X256142D02*
D03*
D39*
X343445Y250492D02*
D03*
Y268209D02*
D03*
X307618Y250492D02*
D03*
Y268209D02*
D03*
Y220965D02*
D03*
Y203248D02*
D03*
X343445Y220965D02*
D03*
Y203248D02*
D03*
D40*
X87599Y107283D02*
D03*
X101378D02*
D03*
D41*
X352315Y231791D02*
D03*
X345520D02*
D03*
X212646Y80217D02*
D03*
X219441D02*
D03*
X212646Y89567D02*
D03*
X219441D02*
D03*
D42*
X347244Y103149D02*
D03*
Y98819D02*
D03*
Y94488D02*
D03*
Y90158D02*
D03*
Y85827D02*
D03*
Y81496D02*
D03*
Y77165D02*
D03*
Y72834D02*
D03*
D43*
X358662Y117913D02*
D03*
Y67126D02*
D03*
D44*
X320275Y66634D02*
D03*
D45*
X301673Y103937D02*
D03*
Y94882D02*
D03*
Y68897D02*
D03*
D46*
X294016Y86860D02*
D03*
X286693D02*
D03*
X177933Y191437D02*
D03*
X185256D02*
D03*
X286693Y76280D02*
D03*
X294016D02*
D03*
X286693Y97441D02*
D03*
X294016D02*
D03*
X184370Y169095D02*
D03*
X177047D02*
D03*
D47*
X163878Y223425D02*
D03*
Y209646D02*
D03*
D48*
X188287Y129921D02*
D03*
X180807D02*
D03*
X291535Y14764D02*
D03*
X299016D02*
D03*
D49*
X201771Y122047D02*
D03*
Y115118D02*
D03*
X88091Y138268D02*
D03*
Y145197D02*
D03*
D50*
X310039Y28988D02*
D03*
Y22193D02*
D03*
Y43307D02*
D03*
Y36512D02*
D03*
D51*
X254921Y21831D02*
D03*
Y49036D02*
D03*
M02*
